<svg xmlns="http://www.w3.org/2000/svg" viewBox="0 0 128 128" role="img" aria-label="IQM Lab logo">
  <defs>
    <linearGradient id="bg" x1="0" y1="0" x2="1" y2="1">
      <stop offset="0" stop-color="#071629"/>
      <stop offset="0.55" stop-color="#0E6BA8"/>
      <stop offset="1" stop-color="#19C8D2"/>
    </linearGradient>
    <linearGradient id="gold" x1="0" x2="1">
      <stop offset="0" stop-color="#FFE58A"/>
      <stop offset="1" stop-color="#E5B84B"/>
    </linearGradient>
    <filter id="glow" x="-30%" y="-30%" width="160%" height="160%">
      <feGaussianBlur stdDeviation="2.2" result="b"/>
      <feMerge><feMergeNode in="b"/><feMergeNode in="SourceGraphic"/></feMerge>
    </filter>
  </defs>
  <rect x="8" y="8" width="112" height="112" rx="30" fill="url(#bg)"/>
  <path d="M24 86C42 44 68 85 92 39" fill="none" stroke="#8FF6FF" stroke-width="5" stroke-linecap="round" opacity=".9" filter="url(#glow)"/>
  <g stroke="#B8FAFF" stroke-width="2.5" opacity=".86">
    <path d="M34 38l30 16 30-16M34 38v34l30 18 30-18V38M64 54v36" fill="none"/>
  </g>
  <g filter="url(#glow)">
    <circle cx="34" cy="38" r="6" fill="#8FF6FF"/>
    <circle cx="64" cy="54" r="6" fill="url(#gold)"/>
    <circle cx="94" cy="38" r="6" fill="#8FF6FF"/>
    <circle cx="34" cy="72" r="5" fill="#8FF6FF"/>
    <circle cx="64" cy="90" r="6" fill="url(#gold)"/>
    <circle cx="94" cy="72" r="5" fill="#8FF6FF"/>
  </g>
  <text x="64" y="112" text-anchor="middle" font-family="Inter, Arial, sans-serif" font-size="24" font-weight="900" fill="#FFFFFF" letter-spacing="1">IQM</text>
</svg>
